<svg width="176" height="32" viewBox="0 0 176 32" fill="none" xmlns="http://www.w3.org/2000/svg">
<g id="Group 83512">
<g id="Group 83220">
<g id="Group 83218" opacity="0.5">
<g id="Group 83524">
<path id="Vector" d="M160.469 18.8085H159.618L159.316 18.5187C160.609 17.0159 161.277 14.9656 160.911 12.7865C160.404 9.80235 157.904 7.41931 154.888 7.05434C150.33 6.49615 146.494 10.3176 147.055 14.8583C147.421 17.8639 149.813 20.3543 152.808 20.8588C154.995 21.2238 157.053 20.5582 158.562 19.2701L158.853 19.5707V20.4187L163.432 24.9808C163.874 25.4209 164.595 25.4209 165.037 24.9808C165.479 24.5407 165.479 23.8215 165.037 23.3814L160.469 18.8085Z" fill="white"/>
<path id="Vector_2" d="M158.641 13.8792C158.641 16.5091 156.509 18.6411 153.879 18.6411C151.249 18.6411 149.117 16.5091 149.117 13.8792C149.117 11.2492 151.249 9.11719 153.879 9.11719C156.509 9.11719 158.641 11.2492 158.641 13.8792Z" fill="#242D40"/>
</g>
</g>
</g>
</g>
</svg>
